<?xml version="1.0" encoding="UTF-8" standalone="no" ?>
<!DOCTYPE svg PUBLIC "-//W3C//DTD SVG 1.1//EN" "http://www.w3.org/Graphics/SVG/1.1/DTD/svg11.dtd">
<svg xmlns="http://www.w3.org/2000/svg" xmlns:xlink="http://www.w3.org/1999/xlink" version="1.1" width="1280" height="1024" viewBox="0 0 1280 1024" xml:space="preserve">
<desc>Created with Fabric.js 3.1.0</desc>
<defs>
</defs>
<g transform="matrix(1.9692780337941629 0 0 1.9692780337941629 640.0153846153846 512.012312418764)" id="background-logo"  >
<rect style="stroke: none; stroke-width: 1; stroke-dasharray: none; stroke-linecap: butt; stroke-dashoffset: 0; stroke-linejoin: miter; stroke-miterlimit: 10; fill: rgb(240,255,253); fill-rule: nonzero; opacity: 1;"  paint-order="stroke"  x="-325" y="-260" rx="0" ry="0" width="650" height="520" />
</g>
<g transform="matrix(1.9692780337941629 0 0 1.9692780337941629 640.0153846153845 411.48066879357214)" style="" id="logo-logo"  >
	<g transform="matrix(0.9602999999999999 0 0 -0.9602999999999999 0 0)"  >
<path style="stroke: none; stroke-width: 1; stroke-dasharray: none; stroke-linecap: butt; stroke-dashoffset: 0; stroke-linejoin: miter; stroke-miterlimit: 10; fill: rgb(27,178,151); fill-rule: nonzero; opacity: 1;"  paint-order="stroke"  transform=" translate(-426.592, -1953.9250000000002)" d="m 519.898 1951.91 l 15.895 15.89 c 12.762 12.71 19.789 29.66 19.789 47.69 c 0 18.01 -7.027 34.95 -19.789 47.67 c -12.719 12.76 -29.656 19.75 -47.668 19.75 c -17.992 0 -34.937 -6.99 -47.699 -19.75 c -4.672 -4.72 -8.656 -10.07 -11.789 -15.93 l -15.926 15.93 c -12.75 12.76 -29.664 19.75 -47.695 19.75 c -18 0 -34.953 -6.99 -47.668 -19.75 c -12.715 -12.72 -19.746 -29.66 -19.746 -47.67 c 0 -18.03 7.031 -34.98 19.746 -47.69 c 4.754 -4.75 10.125 -8.74 15.894 -11.83 l -15.894 -15.89 c -12.715 -12.71 -19.746 -29.66 -19.746 -47.7 c 0 -18.04 7.031 -34.94 19.746 -47.65 c 12.715 -12.77 29.668 -19.79 47.668 -19.79 c 18.031 0 34.98 7.02 47.695 19.79 c 4.727 4.66 8.695 10.06 11.824 15.88 l 15.891 -15.88 c 12.762 -12.77 29.707 -19.79 47.699 -19.79 c 18.012 0 34.949 7.02 47.699 19.79 c 26.289 26.28 26.289 69.06 0 95.35 c -4.793 4.76 -10.156 8.74 -15.926 11.83 m -67.98 99.75 c 9.684 9.67 22.555 14.99 36.207 14.99 c 13.656 0 26.539 -5.32 36.211 -14.99 c 9.668 -9.67 14.984 -22.51 14.984 -36.17 c 0 -13.69 -5.316 -26.53 -14.984 -36.19 l -21.211 -21.21 c -4.879 1.08 -9.883 1.75 -15 1.75 c -1.746 0 -3.496 -0.14 -5.195 -0.24 l 30.554 30.53 c 6.786 6.76 10.481 15.78 10.481 25.36 c 0 9.55 -3.695 18.57 -10.481 25.37 c -6.789 6.73 -15.769 10.48 -25.359 10.48 c -9.586 0 -18.562 -3.75 -25.355 -10.48 c -5.118 -5.12 -8.317 -11.43 -9.707 -18.05 l -12.184 12.2 c 2.559 6.17 6.293 11.9 11.039 16.65 m 22.352 -50.06 c -7.637 7.68 -7.637 20.11 0 27.76 c 3.699 3.7 8.621 5.71 13.855 5.71 c 5.25 0 10.16 -2.01 13.859 -5.71 c 3.7 -3.7 5.719 -8.66 5.719 -13.87 c 0 -5.23 -2.019 -10.15 -5.719 -13.89 l -15.929 -15.89 c -3.125 5.81 -7.067 11.22 -11.785 15.89 m -145.418 -22.3 c -9.672 9.63 -15 22.5 -15 36.19 c 0 13.7 5.328 26.54 15 36.17 c 9.668 9.67 22.507 14.99 36.164 14.99 c 13.691 0 26.523 -5.32 36.195 -14.99 l 61.531 -61.53 h 0.028 c 5.898 -5.88 10.289 -13.2 12.722 -21.11 l 3.047 -9.96 c -5.566 -0.76 -11.016 -2.19 -16.176 -4.31 c -0.207 8.89 -3.652 17.76 -10.445 24.55 c -6.73 6.78 -15.762 10.48 -25.352 10.48 c -9.582 0 -18.562 -3.7 -25.355 -10.48 c -9.672 -9.67 -22.504 -14.99 -36.195 -14.99 c -13.657 0 -26.496 5.32 -36.164 14.99 m 117.296 -25.36 c 0 -5 -1.906 -10.04 -5.722 -13.86 c -3.696 -3.7 -8.625 -5.78 -13.86 -5.78 c -5.242 0 -10.156 2.08 -13.855 5.78 c -7.637 7.65 -7.637 20.08 0 27.72 c 3.699 3.69 8.613 5.72 13.855 5.72 c 5.235 0 10.164 -2.03 13.86 -5.72 c 3.816 -3.82 5.722 -8.85 5.722 -13.86 m -44.937 -97.76 c -9.672 -9.66 -22.504 -14.99 -36.195 -14.99 c -13.657 0 -26.496 5.36 -36.164 14.99 c -9.672 9.67 -15 22.51 -15 36.2 c 0 13.7 5.328 26.53 15 36.2 l 21.164 21.17 c 4.886 -1.09 9.918 -1.71 15 -1.71 c 1.746 0 3.496 0.13 5.195 0.26 l -30.547 -30.56 c -13.988 -13.98 -13.988 -36.74 0 -50.72 c 6.781 -6.73 15.797 -10.47 25.352 -10.47 c 9.586 0 18.601 3.74 25.394 10.47 c 4.996 5 8.289 11.22 9.703 18.01 l 12.196 -12.19 c -2.559 -6.18 -6.309 -11.86 -11.098 -16.66 m -22.305 50.05 c 3.703 -3.69 5.723 -8.6 5.723 -13.85 c 0 -5.25 -2.02 -10.16 -5.723 -13.84 c -3.703 -3.71 -8.648 -5.74 -13.89 -5.74 c -5.2 0 -10.161 2.03 -13.86 5.74 c -7.636 7.63 -7.636 20.05 0 27.69 l 15.922 15.94 c 3.133 -5.86 7.117 -11.22 11.828 -15.94 m 145.43 -50.05 c -9.672 -9.66 -22.555 -14.99 -36.211 -14.99 c -13.652 0 -26.523 5.33 -36.207 14.99 l -61.559 61.56 c -5.886 5.89 -10.277 13.19 -12.679 21.13 l -3.047 9.91 c 5.582 0.81 10.98 2.24 16.133 4.35 c 0.214 -8.91 3.664 -17.76 10.445 -24.55 c 6.793 -6.78 15.805 -10.52 25.355 -10.52 c 9.59 0 18.622 3.74 25.352 10.52 c 9.684 9.68 22.555 14.99 36.207 14.99 c 13.656 0 26.539 -5.31 36.211 -14.99 c 19.945 -19.94 19.945 -52.41 0 -72.4" stroke-linecap="round" />
</g>
	<g transform="matrix(0.9602999999999999 0 0 -0.9602999999999999 47.87640000000005 59.17229999999995)"  >
<path style="stroke: none; stroke-width: 1; stroke-dasharray: none; stroke-linecap: butt; stroke-dashoffset: 0; stroke-linejoin: miter; stroke-miterlimit: 10; fill: rgb(27,178,151); fill-rule: nonzero; opacity: 1;"  paint-order="stroke"  transform=" translate(-476.36587499999996, -1892.405)" d="m 488.125 1928.26 c -9.586 0 -18.562 -3.74 -25.355 -10.52 c -5.93 -5.89 -13.207 -10.32 -21.079 -12.76 l -12.929 -3.94 l 34.008 -34.02 c 6.793 -6.77 15.769 -10.47 25.355 -10.47 c 9.59 0 18.57 3.7 25.359 10.47 c 13.981 13.98 13.981 36.74 0 50.72 c -6.789 6.78 -15.769 10.52 -25.359 10.52 z m 13.859 -49.72 c -3.699 -3.71 -8.609 -5.74 -13.859 -5.74 c -5.234 0 -10.156 2.03 -13.855 5.74 l -15.93 15.87 c 5.855 3.14 11.223 7.12 15.93 11.82 c 3.699 3.7 8.621 5.77 13.855 5.77 c 5.25 0 10.16 -2.07 13.859 -5.77 c 7.633 -7.64 7.633 -20.06 0 -27.69" stroke-linecap="round" />
</g>
	<g transform="matrix(0.9602999999999999 0 0 -0.9602999999999999 -47.916 -59.202000000000226)"  >
<path style="stroke: none; stroke-width: 1; stroke-dasharray: none; stroke-linecap: butt; stroke-dashoffset: 0; stroke-linejoin: miter; stroke-miterlimit: 10; fill: rgb(27,178,151); fill-rule: nonzero; opacity: 1;"  paint-order="stroke"  transform=" translate(-376.7735, -2015.4800000000002)" d="m 390.359 1990.13 c 5.934 5.91 13.254 10.34 21.09 12.72 l 12.922 4 l -34.012 34.01 c -6.742 6.73 -15.757 10.48 -25.343 10.48 c -9.555 0 -18.571 -3.75 -25.352 -10.48 c -6.742 -6.8 -10.488 -15.78 -10.488 -25.37 c 0 -9.58 3.746 -18.6 10.527 -25.36 c 6.742 -6.77 15.758 -10.51 25.313 -10.51 c 9.586 0 18.601 3.74 25.343 10.51 z m -44.937 25.36 c 0 5.24 2.043 10.17 5.734 13.87 c 3.699 3.7 8.66 5.71 13.86 5.71 c 5.242 0 10.187 -2.01 13.89 -5.71 l 15.895 -15.94 c -5.821 -3.12 -11.184 -7.11 -15.895 -11.78 c -3.734 -3.74 -8.648 -5.77 -13.89 -5.77 c -5.2 0 -10.114 2.03 -13.86 5.73 c -3.691 3.7 -5.734 8.66 -5.734 13.89" stroke-linecap="round" />
</g>
</g>
<g transform="matrix(1.9692780337941629 0 0 1.9692780337941629 641.3275314927847 762.4942584434476)" id="text-logo-path"  >
<path style="stroke: none; stroke-width: 1; stroke-dasharray: none; stroke-linecap: butt; stroke-dashoffset: 0; stroke-linejoin: miter; stroke-miterlimit: 10; fill: rgb(255,87,88); fill-rule: nonzero; opacity: 1;"  paint-order="stroke"  transform=" translate(-305.20000000000005, 29.06)" d="M 15.89 0 L 5.49 0 L 5.49 -53.39 L 15.75 -53.39 L 30.83 -22.56 L 45.81 -53.39 L 56.1 -53.39 L 56.1 0 L 45.67 0 L 45.67 -31.86 L 36.07 -11.61 Q 34.02 -7.58 30.83 -7.58 L 30.83 -7.58 Q 27.76 -7.58 25.63 -11.87 L 25.63 -11.87 L 15.89 -31.86 L 15.89 0 Z M 63.72 -22.96 L 63.72 -22.96 Q 63.72 -33.54 68.3 -38.45 Q 72.88 -43.36 82.25 -43.36 L 82.25 -43.36 Q 85.88 -43.36 88.7 -42.43 Q 91.52 -41.49 93.35 -39.88 Q 95.18 -38.27 96.35 -35.93 Q 97.52 -33.58 98.02 -30.98 Q 98.51 -28.38 98.51 -25.27 L 98.51 -25.27 Q 98.51 -23.29 98.36 -19.12 L 98.36 -19.12 L 73.39 -19.12 Q 73.39 -16.22 73.74 -14.32 Q 74.08 -12.41 75.04 -10.86 Q 75.99 -9.3 77.86 -8.59 Q 79.72 -7.87 82.62 -7.87 L 82.62 -7.87 Q 84.19 -7.87 85.46 -8.39 Q 86.72 -8.9 87.47 -9.65 Q 88.22 -10.4 88.73 -11.35 Q 89.25 -12.3 89.45 -13.09 Q 89.65 -13.88 89.65 -14.54 L 89.65 -14.54 L 98.44 -14.54 Q 98.44 -10.47 97.27 -7.43 Q 96.09 -4.39 93.91 -2.58 Q 91.74 -0.77 88.9 0.11 Q 86.06 0.99 82.54 0.99 L 82.54 0.99 Q 78.44 0.99 75.49 0.29 Q 72.55 -0.4 70.24 -2.01 Q 67.93 -3.63 66.54 -6.39 Q 65.15 -9.16 64.43 -13.24 Q 63.72 -17.32 63.72 -22.96 Z M 73.61 -25.82 L 73.61 -25.82 L 89.65 -25.82 Q 89.65 -30.8 87.76 -33.03 Q 85.88 -35.27 81.96 -35.27 L 81.96 -35.27 Q 78.19 -35.27 75.9 -32.98 Q 73.61 -30.69 73.61 -25.82 Z M 114.48 0 L 102.8 0 L 116.64 -21.83 L 103.31 -42.81 L 114.26 -42.81 L 121.77 -30.43 L 129.02 -42.81 L 139.97 -42.81 L 126.64 -21.83 L 140.11 0 L 129.16 0 L 121.62 -13.11 L 114.48 0 Z M 147.24 -48.96 Q 146.12 -50.06 146.12 -53.54 Q 146.12 -57.02 147.22 -58.1 Q 148.32 -59.18 151.83 -59.18 L 151.83 -59.18 Q 155.31 -59.18 156.37 -58.1 Q 157.43 -57.02 157.43 -53.54 L 157.43 -53.54 Q 157.43 -50.02 156.37 -48.94 Q 155.31 -47.86 151.83 -47.86 Q 148.35 -47.86 147.24 -48.96 Z M 156.63 0 L 146.89 0 L 146.89 -41.24 L 156.63 -41.24 L 156.63 0 Z M 164.32 -21.61 L 164.32 -21.61 Q 164.32 -34.02 168.75 -38.64 L 168.75 -38.64 Q 170.69 -40.72 174.1 -42.08 Q 177.5 -43.43 181.6 -43.43 L 181.6 -43.43 Q 189.73 -43.43 193.91 -39.4 Q 198.08 -35.38 198.08 -28.13 L 198.08 -28.13 L 189.22 -28.13 Q 189.22 -31.46 187.59 -33.05 Q 185.96 -34.64 181.6 -34.64 L 181.6 -34.64 Q 179.66 -34.64 178.29 -34.08 Q 176.92 -33.51 176.11 -32.61 Q 175.31 -31.71 174.85 -30.21 Q 174.39 -28.71 174.24 -27.19 Q 174.1 -25.67 174.1 -23.55 L 174.1 -23.55 L 174.1 -19.67 Q 174.1 -17.54 174.22 -16.02 Q 174.35 -14.5 174.79 -12.84 Q 175.23 -11.17 176.02 -10.13 Q 176.81 -9.08 178.22 -8.4 Q 179.63 -7.73 181.6 -7.73 L 181.6 -7.73 Q 183.4 -7.73 184.68 -7.95 Q 185.96 -8.17 186.8 -8.7 Q 187.65 -9.23 188.16 -9.8 Q 188.67 -10.36 188.93 -11.41 Q 189.18 -12.45 189.28 -13.33 Q 189.37 -14.21 189.4 -15.67 L 189.4 -15.67 L 198.23 -15.75 Q 198.19 -15.16 198.08 -13.55 Q 197.97 -11.94 197.94 -11.43 Q 197.9 -10.91 197.77 -9.69 Q 197.64 -8.46 197.46 -7.91 Q 197.28 -7.36 196.98 -6.48 Q 196.69 -5.6 196.25 -4.98 Q 195.81 -4.36 195.23 -3.74 L 195.23 -3.74 Q 193.32 -1.72 189.55 -0.33 Q 185.78 1.06 181.6 1.06 L 181.6 1.06 Q 177.5 1.06 174.1 -0.29 Q 170.69 -1.65 168.75 -3.74 L 168.75 -3.74 Q 164.32 -8.35 164.32 -21.61 Z M 203.21 -21.61 L 203.21 -21.61 Q 203.21 -25.56 203.67 -28.67 Q 204.13 -31.79 205.35 -34.64 Q 206.58 -37.5 208.58 -39.37 Q 210.57 -41.24 213.76 -42.33 Q 216.94 -43.43 221.23 -43.43 L 221.23 -43.43 Q 225.4 -43.43 228.53 -42.43 Q 231.67 -41.42 233.7 -39.62 Q 235.73 -37.83 236.99 -35.05 Q 238.26 -32.26 238.79 -29.02 Q 239.32 -25.78 239.32 -21.61 L 239.32 -21.61 Q 239.32 -17.25 238.88 -13.97 Q 238.44 -10.69 237.25 -7.75 Q 236.06 -4.8 234.06 -2.95 Q 232.07 -1.1 228.85 -0.02 Q 225.62 1.06 221.23 1.06 L 221.23 1.06 Q 216.91 1.06 213.72 -0.02 Q 210.53 -1.1 208.54 -2.98 Q 206.54 -4.87 205.33 -7.82 Q 204.13 -10.77 203.67 -14.04 Q 203.21 -17.32 203.21 -21.61 Z M 212.99 -23.55 L 212.99 -19.67 Q 212.99 -17.91 213.19 -16.35 Q 213.39 -14.79 213.94 -13.17 Q 214.49 -11.54 215.37 -10.36 Q 216.25 -9.19 217.75 -8.46 Q 219.25 -7.73 221.23 -7.73 L 221.23 -7.73 Q 223.39 -7.73 224.96 -8.48 Q 226.54 -9.23 227.4 -10.33 Q 228.26 -11.43 228.77 -13.09 Q 229.28 -14.76 229.41 -16.15 Q 229.54 -17.54 229.54 -19.34 L 229.54 -19.34 L 229.54 -23.25 Q 229.54 -25.34 229.39 -26.82 Q 229.25 -28.31 228.77 -29.88 Q 228.3 -31.46 227.42 -32.43 Q 226.54 -33.4 224.98 -34.02 Q 223.43 -34.64 221.23 -34.64 L 221.23 -34.64 Q 212.99 -34.64 212.99 -23.55 L 212.99 -23.55 Z M 247.49 -37.57 L 246.72 -53.39 L 255.94 -53.39 L 255.21 -37.57 L 247.49 -37.57 Z M 263.53 -12.16 L 263.53 -12.16 L 263.53 -13.04 L 272.35 -13.04 Q 272.35 -9.59 274.15 -8.33 Q 275.94 -7.07 280.37 -7.07 L 280.37 -7.07 Q 282.93 -7.07 284.66 -8.07 Q 286.38 -9.08 286.38 -11.39 L 286.38 -11.39 Q 286.38 -12.41 286.25 -13.13 Q 286.12 -13.84 285.7 -14.74 Q 285.28 -15.64 284.31 -16.24 Q 283.34 -16.85 281.8 -17.1 L 281.8 -17.1 L 274.22 -18.38 Q 264.33 -20 264.33 -30.76 L 264.33 -30.76 Q 264.33 -36.77 268.71 -40.1 Q 273.08 -43.43 279.86 -43.43 L 279.86 -43.43 Q 282.2 -43.43 284.23 -43.12 Q 286.27 -42.81 288.37 -41.91 Q 290.48 -41.02 291.93 -39.59 Q 293.37 -38.16 294.31 -35.74 Q 295.24 -33.33 295.24 -30.14 L 295.24 -30.14 L 295.24 -29.19 L 286.74 -29.19 Q 286.6 -32.7 284.86 -33.98 Q 283.12 -35.27 279.93 -35.27 L 279.93 -35.27 Q 276.97 -35.27 275.37 -34.04 Q 273.78 -32.81 273.78 -31.27 L 273.78 -31.27 Q 273.78 -26.99 277.22 -26.4 L 277.22 -26.4 L 286.3 -24.76 Q 295.9 -22.96 295.9 -11.87 L 295.9 -11.87 L 295.9 -10.73 Q 295.68 -7.84 294.36 -5.62 Q 293.04 -3.41 290.88 -2.07 Q 288.72 -0.73 286.08 -0.07 Q 283.45 0.59 280.37 0.59 L 280.37 0.59 Q 277.59 0.59 275.39 0.33 Q 273.19 0.07 270.89 -0.73 Q 268.58 -1.54 267.04 -2.89 Q 265.5 -4.25 264.51 -6.61 Q 263.53 -8.97 263.53 -12.16 Z M 332.81 -3 L 316.22 -53.39 L 327.03 -53.39 L 337.76 -18.6 L 348.49 -53.39 L 359.36 -53.39 L 342.55 -3 Q 341.64 -0.81 339.66 0 L 339.66 0 Q 338.67 0.4 337.72 0.44 L 337.72 0.44 L 335.71 0 Q 333.73 -0.84 332.81 -3 L 332.81 -3 Z M 360.21 -21.06 L 360.21 -21.06 Q 360.21 -23.11 360.24 -24.57 Q 360.28 -26.04 360.44 -27.98 Q 360.61 -29.92 360.88 -31.31 Q 361.16 -32.7 361.67 -34.31 Q 362.18 -35.93 362.92 -37.04 Q 363.65 -38.16 364.73 -39.28 Q 365.81 -40.39 367.18 -41.05 Q 368.55 -41.71 370.4 -42.11 Q 372.25 -42.52 374.49 -42.52 L 374.49 -42.52 L 384.74 -42.52 L 394.48 -43.14 L 394.48 0 L 387.96 0 L 384.96 -5.16 L 374.56 0.44 Q 371.04 0.44 368.46 -0.66 Q 365.88 -1.76 364.31 -3.57 Q 362.73 -5.38 361.8 -8.24 Q 360.86 -11.1 360.53 -14.1 Q 360.21 -17.1 360.21 -21.06 Z M 369.98 -21.06 L 369.98 -21.06 Q 369.98 -14.9 371.52 -12.36 Q 373.06 -9.81 377.31 -9.81 L 377.31 -9.81 L 384.74 -13.66 L 384.74 -33.76 L 377.31 -33.76 Q 373.17 -33.76 371.58 -30.6 Q 369.98 -27.43 369.98 -21.06 Z M 401.88 -21.61 L 401.88 -21.61 Q 401.88 -34.02 406.31 -38.64 L 406.31 -38.64 Q 408.25 -40.72 411.66 -42.08 Q 415.06 -43.43 419.17 -43.43 L 419.17 -43.43 Q 427.29 -43.43 431.47 -39.4 Q 435.64 -35.38 435.64 -28.13 L 435.64 -28.13 L 426.78 -28.13 Q 426.78 -31.46 425.15 -33.05 Q 423.52 -34.64 419.17 -34.64 L 419.17 -34.64 Q 417.22 -34.64 415.85 -34.08 Q 414.48 -33.51 413.67 -32.61 Q 412.87 -31.71 412.41 -30.21 Q 411.95 -28.71 411.8 -27.19 Q 411.66 -25.67 411.66 -23.55 L 411.66 -23.55 L 411.66 -19.67 Q 411.66 -17.54 411.79 -16.02 Q 411.91 -14.5 412.35 -12.84 Q 412.79 -11.17 413.58 -10.13 Q 414.37 -9.08 415.78 -8.4 Q 417.19 -7.73 419.17 -7.73 L 419.17 -7.73 Q 420.96 -7.73 422.24 -7.95 Q 423.52 -8.17 424.37 -8.7 Q 425.21 -9.23 425.72 -9.8 Q 426.23 -10.36 426.49 -11.41 Q 426.75 -12.45 426.84 -13.33 Q 426.93 -14.21 426.97 -15.67 L 426.97 -15.67 L 435.79 -15.75 Q 435.75 -15.16 435.64 -13.55 Q 435.53 -11.94 435.5 -11.43 Q 435.46 -10.91 435.33 -9.69 Q 435.21 -8.46 435.02 -7.91 Q 434.84 -7.36 434.55 -6.48 Q 434.25 -5.6 433.81 -4.98 Q 433.37 -4.36 432.79 -3.74 L 432.79 -3.74 Q 430.88 -1.72 427.11 -0.33 Q 423.34 1.06 419.17 1.06 L 419.17 1.06 Q 415.06 1.06 411.66 -0.29 Q 408.25 -1.65 406.31 -3.74 L 406.31 -3.74 Q 401.88 -8.35 401.88 -21.61 Z M 439.12 -21.06 L 439.12 -21.06 Q 439.12 -23.11 439.16 -24.57 Q 439.2 -26.04 439.36 -27.98 Q 439.53 -29.92 439.8 -31.31 Q 440.08 -32.7 440.59 -34.31 Q 441.1 -35.93 441.83 -37.04 Q 442.57 -38.16 443.65 -39.28 Q 444.73 -40.39 446.1 -41.05 Q 447.47 -41.71 449.32 -42.11 Q 451.17 -42.52 453.41 -42.52 L 453.41 -42.52 L 463.66 -42.52 L 473.4 -43.14 L 473.4 0 L 466.88 0 L 463.88 -5.16 L 453.48 0.44 Q 449.96 0.44 447.38 -0.66 Q 444.8 -1.76 443.23 -3.57 Q 441.65 -5.38 440.72 -8.24 Q 439.78 -11.1 439.45 -14.1 Q 439.12 -17.1 439.12 -21.06 Z M 448.9 -21.06 L 448.9 -21.06 Q 448.9 -14.9 450.44 -12.36 Q 451.98 -9.81 456.23 -9.81 L 456.23 -9.81 L 463.66 -13.66 L 463.66 -33.76 L 456.23 -33.76 Q 452.09 -33.76 450.49 -30.6 Q 448.9 -27.43 448.9 -21.06 Z M 484.86 -33.69 L 480.73 -33.69 L 480.73 -41.09 L 484.86 -41.09 L 484.86 -49.51 L 494.6 -49.51 L 494.6 -41.09 L 501.53 -41.09 L 501.53 -33.69 L 494.6 -33.69 L 494.6 -11.79 Q 494.6 -8.24 497.97 -8.24 L 497.97 -8.24 L 502.26 -8.24 L 502.26 0 L 496.18 0 Q 493.32 0 491.09 -0.95 Q 488.85 -1.9 487.54 -3.52 Q 486.22 -5.13 485.54 -7.07 Q 484.86 -9.01 484.86 -11.17 L 484.86 -11.17 L 484.86 -33.69 Z M 510.7 -48.96 Q 509.58 -50.06 509.58 -53.54 Q 509.58 -57.02 510.68 -58.1 Q 511.78 -59.18 515.3 -59.18 L 515.3 -59.18 Q 518.77 -59.18 519.84 -58.1 Q 520.9 -57.02 520.9 -53.54 L 520.9 -53.54 Q 520.9 -50.02 519.84 -48.94 Q 518.77 -47.86 515.3 -47.86 Q 511.82 -47.86 510.7 -48.96 Z M 520.09 0 L 510.35 0 L 510.35 -41.24 L 520.09 -41.24 L 520.09 0 Z M 527.78 -21.61 L 527.78 -21.61 Q 527.78 -25.56 528.24 -28.67 Q 528.7 -31.79 529.93 -34.64 Q 531.15 -37.5 533.15 -39.37 Q 535.14 -41.24 538.33 -42.33 Q 541.52 -43.43 545.8 -43.43 L 545.8 -43.43 Q 549.98 -43.43 553.11 -42.43 Q 556.24 -41.42 558.27 -39.62 Q 560.3 -37.83 561.57 -35.05 Q 562.83 -32.26 563.36 -29.02 Q 563.89 -25.78 563.89 -21.61 L 563.89 -21.61 Q 563.89 -17.25 563.45 -13.97 Q 563.01 -10.69 561.82 -7.75 Q 560.63 -4.8 558.64 -2.95 Q 556.64 -1.1 553.42 -0.02 Q 550.2 1.06 545.8 1.06 L 545.8 1.06 Q 541.48 1.06 538.29 -0.02 Q 535.11 -1.1 533.11 -2.98 Q 531.12 -4.87 529.91 -7.82 Q 528.7 -10.77 528.24 -14.04 Q 527.78 -17.32 527.78 -21.61 Z M 537.56 -23.55 L 537.56 -19.67 Q 537.56 -17.91 537.76 -16.35 Q 537.96 -14.79 538.51 -13.17 Q 539.06 -11.54 539.94 -10.36 Q 540.82 -9.19 542.32 -8.46 Q 543.82 -7.73 545.8 -7.73 L 545.8 -7.73 Q 547.96 -7.73 549.54 -8.48 Q 551.11 -9.23 551.97 -10.33 Q 552.83 -11.43 553.34 -13.09 Q 553.86 -14.76 553.99 -16.15 Q 554.11 -17.54 554.11 -19.34 L 554.11 -19.34 L 554.11 -23.25 Q 554.11 -25.34 553.97 -26.82 Q 553.82 -28.31 553.34 -29.88 Q 552.87 -31.46 551.99 -32.43 Q 551.11 -33.4 549.55 -34.02 Q 548 -34.64 545.8 -34.64 L 545.8 -34.64 Q 537.56 -34.64 537.56 -23.55 L 537.56 -23.55 Z M 580.66 0 L 570.92 0 L 570.92 -42.81 L 578.21 -42.81 L 580.44 -37.72 L 592.46 -43.29 Q 595.24 -43.29 597.22 -42.41 Q 599.19 -41.53 600.92 -39.81 L 600.92 -39.81 Q 603.15 -37.57 604.03 -34.88 Q 604.91 -32.19 604.91 -28.71 L 604.91 -28.71 L 604.91 0 L 595.17 0 L 595.17 -27.39 Q 595.17 -31.05 593.65 -32.41 Q 592.13 -33.76 589.45 -33.76 L 589.45 -33.76 L 580.66 -30.07 L 580.66 0 Z" stroke-linecap="round" />
</g>
</svg>